<svg xmlns="http://www.w3.org/2000/svg" xmlns:xlink="http://www.w3.org/1999/xlink" width="500" zoomAndPan="magnify" viewBox="0 0 375 374.999991" height="500" preserveAspectRatio="xMidYMid meet" version="1.0"><defs><clipPath id="451572fc84"><path d="M 74.914062 112.472656 L 300.085938 112.472656 L 300.085938 262.480469 L 74.914062 262.480469 Z M 74.914062 112.472656 " clip-rule="nonzero"/></clipPath><clipPath id="139aa3b4e6"><path d="M 0.914062 0.472656 L 226 0.472656 L 226 150.480469 L 0.914062 150.480469 Z M 0.914062 0.472656 " clip-rule="nonzero"/></clipPath><clipPath id="324dbb96a6"><rect x="0" width="227" y="0" height="151"/></clipPath><clipPath id="8dcbd08af9"><path d="M 74.914062 112.492188 L 299.914062 112.492188 L 299.914062 262.472656 L 74.914062 262.472656 Z M 74.914062 112.492188 " clip-rule="nonzero"/></clipPath><clipPath id="94ba62f849"><path d="M 37.5 176.285156 L 337.5 176.285156 L 337.5 198.714844 L 37.5 198.714844 Z M 37.5 176.285156 " clip-rule="nonzero"/></clipPath><clipPath id="e65e1e784f"><path d="M 0.5 0.285156 L 300.5 0.285156 L 300.5 22.714844 L 0.5 22.714844 Z M 0.5 0.285156 " clip-rule="nonzero"/></clipPath><clipPath id="107afc0fcf"><rect x="0" width="301" y="0" height="23"/></clipPath><clipPath id="64fb36a3bb"><path d="M 44.855469 183.855469 L 330.144531 183.855469 L 330.144531 191.140625 L 44.855469 191.140625 Z M 44.855469 183.855469 " clip-rule="nonzero"/></clipPath><clipPath id="26a95e9611"><path d="M 0.855469 0.855469 L 286.144531 0.855469 L 286.144531 8.140625 L 0.855469 8.140625 Z M 0.855469 0.855469 " clip-rule="nonzero"/></clipPath><clipPath id="d4da7182ca"><rect x="0" width="287" y="0" height="9"/></clipPath><clipPath id="5fe42b30bc"><path d="M 97.820312 134.570312 L 142.605469 134.570312 L 142.605469 141.851562 L 97.820312 141.851562 Z M 97.820312 134.570312 " clip-rule="nonzero"/></clipPath><clipPath id="530067bd66"><path d="M 0.820312 0.570312 L 45.605469 0.570312 L 45.605469 7.851562 L 0.820312 7.851562 Z M 0.820312 0.570312 " clip-rule="nonzero"/></clipPath><clipPath id="bbd0b7b620"><rect x="0" width="46" y="0" height="8"/></clipPath></defs><g clip-path="url(#451572fc84)"><g transform="matrix(1, 0, 0, 1, 74, 112)"><g clip-path="url(#324dbb96a6)"><g clip-path="url(#139aa3b4e6)"><path fill="#ffffff" d="M 0.914062 0.472656 L 225.925781 0.472656 L 225.925781 150.480469 L 0.914062 150.480469 Z M 0.914062 0.472656 " fill-opacity="1" fill-rule="nonzero"/></g></g></g></g><g clip-path="url(#8dcbd08af9)"><path stroke-linecap="butt" transform="matrix(0.75, 0, 0, 0.75, 74.914644, 112.493035)" fill="none" stroke-linejoin="miter" d="M -0.000774774 -0.00113002 L 300.217995 -0.00113002 L 300.217995 200.004091 L -0.000774774 200.004091 Z M -0.000774774 -0.00113002 " stroke="#000000" stroke-width="20" stroke-opacity="1" stroke-miterlimit="4"/></g><g clip-path="url(#94ba62f849)"><g transform="matrix(1, 0, 0, 1, 37, 176)"><g clip-path="url(#107afc0fcf)"><g clip-path="url(#e65e1e784f)"><path fill="#ffffff" d="M 0.5 0.285156 L 300.535156 0.285156 L 300.535156 22.714844 L 0.5 22.714844 Z M 0.5 0.285156 " fill-opacity="1" fill-rule="nonzero"/></g></g></g></g><g clip-path="url(#64fb36a3bb)"><g transform="matrix(1, 0, 0, 1, 44, 183)"><g clip-path="url(#d4da7182ca)"><g clip-path="url(#26a95e9611)"><path fill="#000000" d="M 0.855469 0.855469 L 286.148438 0.855469 L 286.148438 8.140625 L 0.855469 8.140625 Z M 0.855469 0.855469 " fill-opacity="1" fill-rule="nonzero"/></g></g></g></g><g clip-path="url(#5fe42b30bc)"><g transform="matrix(1, 0, 0, 1, 97, 134)"><g clip-path="url(#bbd0b7b620)"><g clip-path="url(#530067bd66)"><path fill="#000000" d="M 0.820312 0.570312 L 45.59375 0.570312 L 45.59375 7.851562 L 0.820312 7.851562 Z M 0.820312 0.570312 " fill-opacity="1" fill-rule="nonzero"/></g></g></g></g></svg>