<svg xmlns="http://www.w3.org/2000/svg" xmlns:xlink="http://www.w3.org/1999/xlink" width="500" zoomAndPan="magnify" viewBox="0 0 375 374.999991" height="500" preserveAspectRatio="xMidYMid meet" version="1.0"><defs><clipPath id="8a9d7cb718"><path d="M 74.914062 112.492188 L 299.914062 112.492188 L 299.914062 262.472656 L 74.914062 262.472656 Z M 74.914062 112.492188 " clip-rule="nonzero"/></clipPath><clipPath id="56ec45727e"><path d="M 37.5 176.285156 L 337.5 176.285156 L 337.5 198.714844 L 37.5 198.714844 Z M 37.5 176.285156 " clip-rule="nonzero"/></clipPath><clipPath id="155744ab23"><path d="M 0.5 0.285156 L 300.5 0.285156 L 300.5 22.714844 L 0.5 22.714844 Z M 0.5 0.285156 " clip-rule="nonzero"/></clipPath><clipPath id="b096f0dcc9"><rect x="0" width="301" y="0" height="23"/></clipPath><clipPath id="4e24184a28"><path d="M 44.855469 183.855469 L 330.144531 183.855469 L 330.144531 191.140625 L 44.855469 191.140625 Z M 44.855469 183.855469 " clip-rule="nonzero"/></clipPath><clipPath id="1a08d0b3cc"><path d="M 0.855469 0.855469 L 286.144531 0.855469 L 286.144531 8.140625 L 0.855469 8.140625 Z M 0.855469 0.855469 " clip-rule="nonzero"/></clipPath><clipPath id="0858020403"><rect x="0" width="287" y="0" height="9"/></clipPath><clipPath id="c6d2e1fdf7"><path d="M 97.820312 134.570312 L 142.605469 134.570312 L 142.605469 141.851562 L 97.820312 141.851562 Z M 97.820312 134.570312 " clip-rule="nonzero"/></clipPath><clipPath id="7da0d8bf9a"><path d="M 0.820312 0.570312 L 45.605469 0.570312 L 45.605469 7.851562 L 0.820312 7.851562 Z M 0.820312 0.570312 " clip-rule="nonzero"/></clipPath><clipPath id="4134591fa3"><rect x="0" width="46" y="0" height="8"/></clipPath></defs><g clip-path="url(#8a9d7cb718)"><path stroke-linecap="butt" transform="matrix(0.75, 0, 0, 0.75, 74.914644, 112.493035)" fill="none" stroke-linejoin="miter" d="M -0.000774774 -0.00113002 L 300.217995 -0.00113002 L 300.217995 200.004091 L -0.000774774 200.004091 Z M -0.000774774 -0.00113002 " stroke="#ffffff" stroke-width="20" stroke-opacity="1" stroke-miterlimit="4"/></g><g clip-path="url(#56ec45727e)"><g transform="matrix(1, 0, 0, 1, 37, 176)"><g clip-path="url(#b096f0dcc9)"><g clip-path="url(#155744ab23)"><path fill="#000000" d="M 0.5 0.285156 L 300.535156 0.285156 L 300.535156 22.714844 L 0.5 22.714844 Z M 0.5 0.285156 " fill-opacity="1" fill-rule="nonzero"/></g></g></g></g><g clip-path="url(#4e24184a28)"><g transform="matrix(1, 0, 0, 1, 44, 183)"><g clip-path="url(#0858020403)"><g clip-path="url(#1a08d0b3cc)"><path fill="#ffffff" d="M 0.855469 0.855469 L 286.148438 0.855469 L 286.148438 8.140625 L 0.855469 8.140625 Z M 0.855469 0.855469 " fill-opacity="1" fill-rule="nonzero"/></g></g></g></g><g clip-path="url(#c6d2e1fdf7)"><g transform="matrix(1, 0, 0, 1, 97, 134)"><g clip-path="url(#4134591fa3)"><g clip-path="url(#7da0d8bf9a)"><path fill="#ffffff" d="M 0.820312 0.570312 L 45.59375 0.570312 L 45.59375 7.851562 L 0.820312 7.851562 Z M 0.820312 0.570312 " fill-opacity="1" fill-rule="nonzero"/></g></g></g></g></svg>