<svg xmlns="http://www.w3.org/2000/svg" xmlns:xlink="http://www.w3.org/1999/xlink" width="500" zoomAndPan="magnify" viewBox="0 0 375 74.999997" height="100" preserveAspectRatio="xMidYMid meet" version="1.0"><defs><g/></defs><g fill="#ffffff" fill-opacity="1"><g transform="translate(13.437419, 51.225617)"><g><path d="M 23.1875 -3.4375 L 23.1875 0 L 3.359375 0 L 3.359375 -29.90625 L 7.3125 -29.90625 L 7.3125 -3.4375 Z M 23.1875 -3.4375 "/></g></g></g><g fill="#ffffff" fill-opacity="1"><g transform="translate(56.742374, 51.225617)"><g><path d="M 7.4375 -29.90625 L 7.4375 0 L 3.484375 0 L 3.484375 -29.90625 Z M 7.4375 -29.90625 "/></g></g></g><g fill="#ffffff" fill-opacity="1"><g transform="translate(87.573327, 51.225617)"><g><path d="M 3.15625 -29.90625 L 7.46875 -29.90625 L 23.265625 -5.625 L 23.265625 -29.90625 L 27.09375 -29.90625 L 27.09375 0 L 22.640625 0 L 6.9375 -23.984375 L 6.9375 0 L 3.15625 0 Z M 3.15625 -29.90625 "/></g></g></g><g fill="#ffffff" fill-opacity="1"><g transform="translate(137.850273, 51.225617)"><g><path d="M 27.59375 -29.90625 L 15 -17.890625 L 28.09375 0 L 23.0625 0 L 12.21875 -15.203125 L 7.265625 -10.5 L 7.265625 0 L 3.3125 0 L 3.3125 -29.90625 L 7.265625 -29.90625 L 7.265625 -15.078125 L 22.421875 -29.90625 Z M 27.59375 -29.90625 "/></g></g></g><g fill="#ffffff" fill-opacity="1"><g transform="translate(185.817219, 51.225617)"><g><path d="M 28.640625 -11.296875 C 28.304688 -7.515625 26.992188 -4.578125 24.703125 -2.484375 C 22.429688 -0.347656 19.429688 0.71875 15.703125 0.71875 C 11.453125 0.71875 8.082031 -0.695312 5.59375 -3.53125 C 3.09375 -6.332031 1.84375 -10.125 1.84375 -14.90625 C 1.84375 -19.382812 3.101562 -23.125 5.625 -26.125 C 8.113281 -29.09375 11.570312 -30.578125 16 -30.578125 C 19.164062 -30.578125 21.953125 -29.722656 24.359375 -28.015625 C 26.765625 -26.304688 28.109375 -23.941406 28.390625 -20.921875 L 24.4375 -20.921875 C 23.988281 -22.878906 23.007812 -24.414062 21.5 -25.53125 C 19.988281 -26.625 18.128906 -27.171875 15.921875 -27.171875 C 12.585938 -27.171875 10.082031 -25.992188 8.40625 -23.640625 C 6.695312 -21.296875 5.84375 -18.398438 5.84375 -14.953125 C 5.84375 -11.140625 6.738281 -8.144531 8.53125 -5.96875 C 10.320312 -3.78125 12.769531 -2.6875 15.875 -2.6875 C 18.425781 -2.6875 20.457031 -3.425781 21.96875 -4.90625 C 23.476562 -6.363281 24.390625 -8.492188 24.703125 -11.296875 Z M 28.640625 -11.296875 "/></g></g></g><g fill="#ffffff" fill-opacity="1"><g transform="translate(236.094154, 51.225617)"><g><path d="M 15.875 -29.90625 L 27.546875 0 L 23.140625 0 L 19.828125 -9.15625 L 7.265625 -9.15625 L 3.859375 0 L -0.34375 0 L 11.421875 -29.90625 Z M 18.640625 -12.3125 L 13.5625 -26.125 L 8.40625 -12.3125 Z M 18.640625 -12.3125 "/></g></g></g><g fill="#ffffff" fill-opacity="1"><g transform="translate(283.263126, 51.225617)"><g><path d="M 3.3125 -29.90625 L 16.46875 -29.90625 C 23.15625 -29.90625 26.5 -27.144531 26.5 -21.625 C 26.5 -19.894531 26.035156 -18.367188 25.109375 -17.046875 C 24.160156 -15.703125 22.914062 -14.804688 21.375 -14.359375 C 22.382812 -14.140625 23.195312 -13.816406 23.8125 -13.390625 C 24.425781 -12.972656 24.875 -12.390625 25.15625 -11.640625 C 25.4375 -10.878906 25.617188 -10.207031 25.703125 -9.625 C 25.785156 -9.03125 25.851562 -8.160156 25.90625 -7.015625 C 25.90625 -6.898438 25.921875 -6.632812 25.953125 -6.21875 C 25.984375 -5.769531 26 -5.472656 26 -5.328125 C 26 -5.160156 26.023438 -4.882812 26.078125 -4.5 C 26.109375 -4.101562 26.140625 -3.804688 26.171875 -3.609375 C 26.191406 -3.410156 26.234375 -3.144531 26.296875 -2.8125 C 26.347656 -2.476562 26.414062 -2.210938 26.5 -2.015625 C 26.582031 -1.796875 26.679688 -1.554688 26.796875 -1.296875 C 26.910156 -1.015625 27.035156 -0.78125 27.171875 -0.59375 C 27.316406 -0.363281 27.472656 -0.164062 27.640625 0 L 23.09375 0 C 22.90625 -0.28125 22.753906 -0.628906 22.640625 -1.046875 C 22.492188 -1.472656 22.394531 -1.976562 22.34375 -2.5625 C 22.289062 -3.125 22.25 -3.585938 22.21875 -3.953125 C 22.1875 -4.285156 22.160156 -4.785156 22.140625 -5.453125 C 22.109375 -6.128906 22.09375 -6.507812 22.09375 -6.59375 C 21.945312 -9.144531 21.425781 -10.835938 20.53125 -11.671875 C 19.613281 -12.515625 17.8125 -12.9375 15.125 -12.9375 L 7.265625 -12.9375 L 7.265625 0 L 3.3125 0 Z M 7.265625 -26.546875 L 7.265625 -16.09375 L 14.703125 -16.09375 C 15.628906 -16.09375 16.410156 -16.117188 17.046875 -16.171875 C 17.660156 -16.222656 18.347656 -16.347656 19.109375 -16.546875 C 19.867188 -16.742188 20.484375 -17.023438 20.953125 -17.390625 C 21.398438 -17.753906 21.78125 -18.269531 22.09375 -18.9375 C 22.394531 -19.613281 22.546875 -20.425781 22.546875 -21.375 C 22.546875 -23.394531 21.945312 -24.769531 20.75 -25.5 C 19.519531 -26.195312 17.851562 -26.546875 15.75 -26.546875 Z M 7.265625 -26.546875 "/></g></g></g><g fill="#ffffff" fill-opacity="1"><g transform="translate(331.986068, 51.225617)"><g><path d="M 3.3125 -29.90625 L 13.0625 -29.90625 C 18.125 -29.90625 21.863281 -28.726562 24.28125 -26.375 C 26.6875 -24.019531 27.890625 -20.296875 27.890625 -15.203125 C 27.890625 -10.191406 26.769531 -6.410156 24.53125 -3.859375 C 22.289062 -1.285156 18.707031 0 13.78125 0 L 3.3125 0 Z M 7.265625 -26.5 L 7.265625 -3.40625 L 13.265625 -3.40625 C 17.023438 -3.40625 19.742188 -4.3125 21.421875 -6.125 C 23.128906 -7.976562 23.984375 -10.847656 23.984375 -14.734375 C 23.984375 -18.828125 23.15625 -21.8125 21.5 -23.6875 C 19.851562 -25.5625 17.054688 -26.5 13.109375 -26.5 Z M 7.265625 -26.5 "/></g></g></g></svg>